<svg width="48" height="75" viewBox="0 0 48 75" fill="none" xmlns="http://www.w3.org/2000/svg">
<path d="M0.0191006 0.0060948C1.25595 0.0137704 2.49283 0.011739 3.72963 0C3.66062 0.912963 3.74149 2.0101 3.71502 2.93869C3.70361 3.34043 3.74512 3.74696 3.67834 4.14643C4.9541 4.17114 6.60179 4.19325 7.87125 4.14519L7.87751 7.91644C7.67503 7.96813 6.72665 7.88582 6.46704 7.89592C6.60383 8.06959 6.7373 8.14196 6.9004 8.29583C7.23449 8.61236 7.56354 8.93415 7.88749 9.26101C7.89943 8.85097 7.87608 8.34588 7.87751 7.91644C8.10583 7.78919 10.9789 7.9077 11.561 7.82224C11.5807 8.99913 11.6236 10.805 11.566 11.97C12.8826 11.9969 14.4938 12.012 15.8105 11.974C15.8278 13.2552 15.8036 14.548 15.8268 15.8217C15.5746 15.7902 15.0005 15.7289 14.7633 15.7509C14.9807 15.9824 15.6242 16.6044 15.8515 16.7705C15.8601 16.446 15.8633 16.1214 15.8609 15.7968C16.8759 15.8044 18.6122 15.8629 19.5936 15.7844C19.5851 16.28 19.6371 19.6956 19.5354 19.879C19.3234 19.9444 19.2638 19.8322 19.0829 19.8707C19.2422 20.0917 19.6217 20.3336 19.9058 20.6863C19.9175 20.4258 19.9078 20.171 19.9203 19.9141C21.0852 19.9285 22.4992 19.9496 23.6609 19.9153C23.595 20.8418 23.6357 22.6164 23.6505 23.591C23.5044 23.5783 23.0554 23.5107 22.9564 23.5719C23.2166 23.7805 23.3699 23.938 23.595 24.1894C23.6513 24.0186 23.6202 23.7718 23.6114 23.5833L27.7562 23.5844C27.7278 24.5781 27.7593 25.5884 27.7514 26.5832C27.7482 26.9578 27.7725 27.4688 27.7482 27.8277C28.8746 27.7291 30.3542 27.9006 31.5022 27.7901L31.511 31.4712C31.9169 31.3737 32.5156 31.4132 32.9411 31.4021C33.83 31.3789 34.8239 31.4414 35.7052 31.3986C35.615 32.4509 35.6976 34.4716 35.6893 35.5889C36.2964 35.627 37.0132 35.6123 37.6279 35.6129C38.2234 35.6135 38.9351 35.6269 39.5171 35.5831C39.5103 36.1207 39.448 39.2415 39.6177 39.5101C40.0472 39.7508 43.0069 39.6574 43.6659 39.6251C43.6595 40.1276 43.6052 43.015 43.7062 43.3156C43.8666 43.4198 43.8702 43.4262 43.976 43.5898C44.8809 43.6225 46.2919 43.6373 47.1899 43.5882C47.1213 44.8827 47.1868 46.5591 47.1768 47.9022C47.1696 48.8382 47.1317 50.5829 47.1979 51.4614C46.7501 51.4068 46.1613 51.4231 45.7015 51.4239L43.3956 51.4275H35.4985L32.9371 51.4279C32.54 51.4283 31.9456 51.4459 31.5644 51.4175C31.564 52.615 31.6004 53.9869 31.5704 55.1636L35.6641 55.166C35.5851 57.8407 35.6964 60.6638 35.6569 63.3565C36.8995 63.3529 38.1596 63.3585 39.4013 63.3393C39.357 64.1161 39.3846 65.1387 39.3846 65.9322L39.3842 70.8346C38.3009 70.7468 37.1709 70.8294 36.0832 70.811C35.8657 70.8074 35.7539 70.8222 35.5376 70.7643L35.4905 70.8034C35.5316 70.819 35.6358 70.8569 35.6394 70.8876C35.7272 71.6784 35.6777 74.3179 35.6901 74.9997C35.2945 74.9462 34.7349 74.963 34.3258 74.9626L32.1835 74.9614L29.3112 74.9622C28.746 74.9626 28.0324 74.945 27.4779 74.9873L27.4692 70.8457C27.0293 70.7647 24.2153 70.7803 23.7639 70.8477V66.0931C23.7635 65.6967 23.8046 63.5888 23.6772 63.3956C23.6453 63.4188 23.5719 63.4766 23.5328 63.4762C22.5121 63.4695 21.4909 63.4635 20.47 63.4675C20.1549 63.4687 19.8478 63.4711 19.5328 63.4858L19.5304 58.0135C19.5304 57.1018 19.5488 56.0912 19.5092 55.1863C18.6584 55.0821 16.7403 55.1691 15.7863 55.1548C15.7706 56.5366 15.7679 57.9193 15.7783 59.3011C14.6514 59.2213 13.122 59.3291 11.9734 59.2612C11.9248 59.2584 11.9179 59.2109 11.8892 59.1539C11.9045 59.0341 11.9249 58.9926 11.8658 58.8816C11.7395 58.9934 11.5816 59.1251 11.465 59.2425C11.6703 59.27 11.7409 59.262 11.7488 59.4919C11.7919 60.7401 11.645 62.1618 11.7638 63.3968C11.249 63.3585 8.30261 63.3002 7.93363 63.4423C7.84023 63.612 7.86869 66.7177 7.86502 67.1939C7.49198 67.1181 6.70813 67.1392 6.3087 67.1388C5.37477 67.1348 4.4408 67.1392 3.50695 67.1524C2.52384 67.16 0.972628 67.1081 0.0356644 67.1903C-0.0353044 64.9068 0.0215752 62.2976 0.0214954 59.9925L0.0213358 46.3412L0.0191006 0.0060948ZM31.4607 55.1292C31.2168 55.1484 30.9797 55.1332 30.7354 55.124L30.8923 55.3396C31.0743 55.5914 31.295 56.0042 31.4543 56.2832C31.5784 56.1838 31.4802 55.3164 31.4607 55.1292ZM7.07782 63.3733C7.27121 63.404 7.62605 63.3761 7.83273 63.3661C7.8441 63.1785 7.88797 62.8532 7.78439 62.7091C7.54514 62.9442 7.32932 63.1521 7.07782 63.3733ZM11.533 12.7254C11.5946 12.608 11.5571 12.2719 11.5558 12.0937C11.328 12.0874 11.0436 12.0438 10.8338 12.0725C11.1484 12.327 11.2551 12.4464 11.533 12.7254Z" fill="#FEFEFE"/>
<path d="M30.7363 55.1245C30.9806 55.1337 31.2177 55.1489 31.4616 55.1297C31.4811 55.3169 31.5793 56.1843 31.4552 56.2836C31.2959 56.0046 31.0752 55.5919 30.8932 55.34L30.7363 55.1245Z" fill="#191515" fill-opacity="0.01"/>
<path d="M0.0191006 0.0060948C1.25595 0.0137704 2.49283 0.011739 3.72963 0C3.66062 0.912963 3.74149 2.0101 3.71502 2.93869C3.70361 3.34043 3.74512 3.74696 3.67834 4.14643C4.9541 4.17114 6.60179 4.19325 7.87125 4.14519L7.87751 7.91644C7.67503 7.96813 6.72665 7.88582 6.46704 7.89592C5.78849 7.94921 4.43725 7.90395 3.71115 7.90335C3.668 9.52126 3.70089 11.242 3.70149 12.8704L3.70201 21.8254L3.70241 49.1867L3.70229 58.6138L3.70109 61.7831C3.70038 62.2764 3.71734 62.9047 3.69307 63.3896C4.69777 63.3904 6.10585 63.4331 7.07782 63.3733C7.27121 63.404 7.62605 63.3761 7.83273 63.3661C7.8441 63.1785 7.88797 62.8532 7.78439 62.7091L7.80674 62.6987C7.90597 62.4891 7.87153 59.7183 7.87292 59.2732C8.63769 59.2704 9.4025 59.2716 10.1673 59.2776C10.4913 59.2784 11.1642 59.2932 11.465 59.2425C11.6703 59.27 11.7409 59.262 11.7488 59.4919C11.7919 60.7401 11.645 62.1618 11.7638 63.3968C11.249 63.3585 8.30261 63.3002 7.93363 63.4423C7.84023 63.612 7.86869 66.7177 7.86502 67.1939C7.49198 67.1181 6.70813 67.1392 6.3087 67.1388C5.37477 67.1348 4.4408 67.1392 3.50695 67.1524C2.52384 67.16 0.972628 67.1081 0.0356644 67.1903C-0.0353044 64.9068 0.0215752 62.2976 0.0214954 59.9925L0.0213358 46.3412L0.0191006 0.0060948Z" fill="#191515"/>
<path d="M43.9753 43.5905C44.8802 43.6232 46.2911 43.638 47.1892 43.5889C47.1206 44.8833 47.186 46.5597 47.1761 47.9029C47.1689 48.8389 47.131 50.5836 47.1972 51.4621C46.7494 51.4074 46.1606 51.4238 45.7008 51.4246L43.3949 51.4282H35.4977L32.9364 51.4286C32.5393 51.429 31.9449 51.4465 31.5637 51.4182C31.5633 52.6156 31.5996 53.9875 31.5697 55.1642L35.6634 55.1666C35.5844 57.8413 35.6957 60.6645 35.6562 63.3571C36.8988 63.3536 38.1589 63.3591 39.4006 63.34C39.3563 64.1167 39.3839 65.1393 39.3839 65.9328L39.3835 70.8352C38.3002 70.7474 37.1702 70.83 36.0825 70.8117C35.865 70.8081 35.7532 70.8228 35.5369 70.765L35.6171 70.7199C35.7556 70.3199 35.6646 64.3247 35.6722 63.4509C34.4117 63.5084 32.8027 63.4625 31.517 63.4625C31.5522 62.1142 31.4947 60.6549 31.519 59.2926C31.5294 58.7202 31.5541 56.7456 31.4536 56.2838C31.5777 56.1844 31.4795 55.3171 31.4599 55.1299C31.2161 55.149 30.979 55.1339 30.7347 55.1247C29.6586 55.0963 28.5266 55.1111 27.4489 55.1167L27.4365 51.2817C27.4413 49.9904 27.4708 48.6138 27.4445 47.3261C27.6505 47.287 28.5873 47.3018 28.8563 47.3022L31.8631 47.3065L43.3235 47.3069C43.3354 46.3921 43.2644 44.6857 43.3514 43.8543C43.349 43.7537 43.3442 43.7577 43.3841 43.6667C43.5414 43.5893 43.7933 43.6044 43.9753 43.5905Z" fill="#191515"/>
<path d="M43.3243 47.3062C43.3363 46.3913 43.2652 44.6849 43.3522 43.8535C43.3762 44.4658 43.3997 49.749 43.2999 49.8727C43.2644 49.3187 43.248 47.9041 43.2915 47.3469L32.1365 47.3433L28.9461 47.3453C28.6408 47.3457 27.6844 47.3628 27.4453 47.3253C27.6513 47.2862 28.5881 47.301 28.8571 47.3014L31.8639 47.3058L43.3243 47.3062Z" fill="#6A6A6D"/>
<path d="M15.7639 51.1729C16.9881 51.1689 18.2863 51.1489 19.5069 51.1785L19.5032 55.1788L23.6653 55.1863L23.6681 60.4328C23.6681 61.0634 23.6238 62.7913 23.7475 63.2871C23.8664 63.4032 26.9515 63.3529 27.3706 63.347C27.4061 63.3466 27.4412 63.3454 27.4763 63.3442L27.4771 70.825L32.6525 70.833C33.4357 70.833 34.7668 70.8709 35.4909 70.8039C35.532 70.8194 35.6362 70.8573 35.6398 70.8881C35.7276 71.6788 35.6781 74.3184 35.6904 75.0001C35.2949 74.9466 34.7353 74.9634 34.3261 74.963L32.1839 74.9618L29.3116 74.9626C28.7464 74.963 28.0328 74.9454 27.4783 74.9877L27.4696 70.8462C27.0297 70.7651 24.2157 70.7807 23.7643 70.8482V66.0935C23.7639 65.6971 23.805 63.5892 23.6776 63.396C23.6457 63.4192 23.5723 63.4771 23.5331 63.4767C22.5125 63.4699 21.4913 63.4639 20.4704 63.4679C20.1553 63.4691 19.8482 63.4715 19.5332 63.4863L19.5308 58.0139C19.5308 57.1023 19.5492 56.0916 19.5096 55.1867C18.6588 55.0826 16.7407 55.1696 15.7867 55.1552C15.771 56.5371 15.7683 57.9197 15.7787 59.3016C14.6518 59.2217 13.1224 59.3295 11.9738 59.2617C11.9252 59.2589 11.9183 59.2114 11.8896 59.1543C11.9049 59.0345 11.9253 58.993 11.8662 58.8821C11.9247 58.4769 11.908 57.9157 11.908 57.4954L11.9057 55.1831L15.7456 55.1776C15.7726 53.8508 15.7263 52.4825 15.7639 51.1729Z" fill="#191515"/>
<path d="M23.6111 23.5835L27.7559 23.5846C27.7275 24.5783 27.7591 25.5886 27.7511 26.5834C27.7479 26.958 27.7722 27.4689 27.7479 27.8279C28.8743 27.7293 30.3539 27.9007 31.5019 27.7903L31.5107 31.4714C31.9166 31.3738 32.5153 31.4134 32.9408 31.4023C33.8297 31.3791 34.8236 31.4416 35.7049 31.3988C35.6147 32.451 35.6973 34.4718 35.689 35.5891C36.2961 35.6272 37.0129 35.6125 37.6276 35.6131C38.2232 35.6137 38.9348 35.627 39.5168 35.5832C39.51 36.1209 39.4477 39.2417 39.6174 39.5103C40.0469 39.751 43.0066 39.6576 43.6656 39.6252C43.6592 40.1278 43.6049 43.0152 43.7059 43.3158C43.3043 43.4351 40.0533 43.3529 39.425 43.3513C39.417 42.1275 39.419 40.9037 39.4302 39.6795L35.7017 39.6783C35.7329 38.3416 35.7149 36.9557 35.7145 35.6145L31.5709 35.6105C31.5502 34.9696 31.6484 31.913 31.4408 31.5909C31.1331 31.4866 28.3139 31.5291 27.7914 31.5301L27.793 29.4015C27.793 29.0191 27.8074 28.4914 27.7614 28.1214C27.6289 27.9922 27.52 27.9147 27.3735 27.8047C26.4714 27.7283 24.6022 27.7883 23.6311 27.7909C23.6446 27.2762 23.6714 24.5075 23.5947 24.1896C23.651 24.0187 23.6199 23.772 23.6111 23.5835Z" fill="#191515"/>
<path d="M7.87799 7.91695C8.10631 7.7897 10.9794 7.90821 11.5615 7.82275C11.5812 8.99965 11.6241 10.8056 11.5665 11.9706C12.883 11.9974 14.4943 12.0125 15.8109 11.9745C15.8283 13.2557 15.8041 14.5485 15.8273 15.8222C15.575 15.7907 15.001 15.7294 14.7638 15.7514C14.6655 15.7754 13.858 15.761 13.6941 15.7602C12.9825 15.7552 12.2708 15.7566 11.5592 15.7646C11.5539 15.052 11.6175 13.3509 11.5334 12.7259C11.5951 12.6086 11.5576 12.2724 11.5562 12.0943C11.3285 12.0879 11.044 12.0443 10.8343 12.073C10.6237 12.0444 10.0021 12.056 9.7736 12.0566L7.89276 12.0574C7.9019 11.1254 7.90031 10.1934 7.88797 9.26153C7.89991 8.85148 7.87656 8.3464 7.87799 7.91695Z" fill="#191515"/>
<path d="M15.861 15.7967C16.876 15.8043 18.6122 15.8627 19.5936 15.7842C19.5852 16.2798 19.6372 19.6954 19.5355 19.8788C19.3235 19.9442 19.2638 19.832 19.083 19.8706C18.9201 19.8967 18.2267 19.8856 18.0362 19.8854L15.8666 19.8806C15.9068 19.0395 15.8833 17.6258 15.8516 16.7703C15.8602 16.4458 15.8634 16.1212 15.861 15.7967Z" fill="#191515"/>
<path d="M19.9203 19.9141C21.0852 19.9285 22.4992 19.9495 23.6609 19.9152C23.595 20.8417 23.6358 22.6164 23.6505 23.591C23.5044 23.5783 23.0554 23.5106 22.9564 23.5718C22.6758 23.5182 20.3519 23.5471 19.9176 23.5428C19.865 22.7444 19.9091 21.5224 19.9059 20.6863C19.9175 20.4258 19.9078 20.1709 19.9203 19.9141Z" fill="#191515"/>
</svg>
