<svg width="59" height="75" viewBox="0 0 59 75" fill="none" xmlns="http://www.w3.org/2000/svg">
<path d="M19.9718 73.2741C20.1317 73.2741 49.7159 72.9013 49.7159 72.9013L50.0357 66.238L51.9011 64.2659L53.2341 55.6836L55.5257 53.7115L56.0587 32.0164L55.0995 31.0033L54.1936 30.3639L51.6349 27.645L50.9413 26.9523L47.1572 24.98L45.5047 24.7667L44.5448 24.1271L43.9594 23.5404L35.3764 21.0353L34.684 20.769L33.8838 20.1291L29.2467 18.37L26.2616 17.9968L25.5153 3.9779L24.7693 3.49811L24.1826 3.60447L23.436 2.91181L17.7325 2.80518L17.4127 3.07143L16.6664 3.71138L13.9477 34.2014L11.4957 34.9481L10.5365 34.415L9.47072 33.5087L2.00781 33.4024C2.00781 33.4024 2.22074 37.4534 2.06113 37.7732C1.9009 38.0931 2.80745 40.4383 2.80745 40.4383L3.71365 41.2911L6.27231 43.3704L7.12527 44.7027C7.12527 44.7027 9.31084 49.3937 9.25745 49.6072C9.20386 49.8201 9.79022 50.5131 9.79022 50.5131L10.6965 51.4726L13.0423 57.2294L14.3213 58.5621L16.3467 64.0524L17.6259 65.332C17.6259 65.332 19.0655 72.2612 18.8523 72.3681C18.6391 72.4748 19.9718 73.2741 19.9718 73.2741Z" fill="white"/>
<path d="M17.0228 3.3916H13.7061V47.7609H17.0228V3.3916Z" fill="black"/>
<path d="M27.3673 3.44482H23.9443V34.1418H27.3673V3.44482Z" fill="black"/>
<path d="M37.5632 20.4292H34.1289V34.1419H37.5632V20.4292Z" fill="black"/>
<path d="M47.7976 23.894H44.3633V37.6071H47.7976V23.894Z" fill="black"/>
<path d="M58.0866 30.6104H54.6514V54.5572H58.0866V30.6104Z" fill="black"/>
<path d="M44.2697 20.4292L44.2732 23.8004L34.3979 23.8137L34.3916 20.4425L44.2697 20.4292Z" fill="black"/>
<path d="M51.2492 23.8867L51.2527 27.2614L44.4124 27.2715L44.4092 23.9003L51.2492 23.8867Z" fill="black"/>
<path d="M34.1415 17.0176L34.1451 20.4421L24.4767 20.4554L24.4697 17.0305L34.1415 17.0176Z" fill="black"/>
<path d="M23.934 0H17.1113V3.35795H23.934V0Z" fill="black"/>
<path d="M54.5843 27.292H51.2793V30.6503H54.5843V27.292Z" fill="black"/>
<path d="M54.5841 54.5308H51.1729V64.8193H54.5841V54.5308Z" fill="black"/>
<path d="M17.0578 57.9961H13.6465V64.8193H17.0578V57.9961Z" fill="black"/>
<path d="M13.6461 51.1196H10.2344V57.9423H13.6461V51.1196Z" fill="black"/>
<path d="M10.2349 44.2964H6.82324V51.1196H10.2349V44.2964Z" fill="black"/>
<path d="M6.82247 40.832H3.41113V44.2966H6.82247V40.832Z" fill="black"/>
<path d="M13.6461 34.1152H10.2344V37.5802H13.6461V34.1152Z" fill="black"/>
<path d="M3.41161 30.7036H0V40.8849H3.41161V30.7036Z" fill="black"/>
<path d="M51.1722 64.8193H47.8672V75.0002H51.1722V64.8193Z" fill="black"/>
<path d="M20.4695 64.8193H17.165V75.0002H20.4695V64.8193Z" fill="black"/>
<path d="M51.173 71.6953H17.165V75H51.173V71.6953Z" fill="black"/>
<path d="M10.2349 30.6504H1.5459V34.0621H10.2349V30.6504Z" fill="black"/>
</svg>
