<svg width="130" height="36" viewBox="0 0 130 36" fill="none" xmlns="http://www.w3.org/2000/svg">
<rect x="0.708703" y="0.708703" width="128.583" height="34.5826" rx="5.2913" fill="white"/>
<rect x="0.708703" y="0.708703" width="128.583" height="34.5826" rx="5.2913" stroke="#2F2516" stroke-width="1.41741"/>
<path d="M15.6167 15L14.0277 6.88314H15.4063L16.4029 12.4586L17.621 6.88314H19.2211L20.3894 12.5528L21.4137 6.88314H22.7647L21.1479 15H19.7195L18.3906 8.93173L17.0729 15H15.6167ZM24.0713 10.9139L22.9141 10.6592C23.0544 10.0649 23.2851 9.63859 23.6062 9.38021C23.9311 9.11814 24.3961 8.9871 25.0015 8.9871C25.5404 8.9871 25.952 9.06277 26.2362 9.21411C26.5204 9.36545 26.7234 9.57215 26.8452 9.83422C26.967 10.0926 27.0279 10.5651 27.0279 11.2516L27.0169 13.0677C27.0169 13.5771 27.0372 13.9572 27.0778 14.2082C27.1184 14.4556 27.194 14.7195 27.3048 15H26.0424L25.8763 14.3577C25.6585 14.6161 25.4241 14.8099 25.1731 14.9391C24.9258 15.0683 24.6619 15.1329 24.3814 15.1329C23.9126 15.1329 23.5287 14.976 23.2297 14.6623C22.9308 14.3448 22.7813 13.924 22.7813 13.3999C22.7813 13.0677 22.8422 12.7779 22.964 12.5306C23.0858 12.2833 23.2574 12.0858 23.4789 11.9382C23.7004 11.7905 24.0547 11.6595 24.5419 11.5451C25.1325 11.4085 25.5441 11.2812 25.7766 11.163C25.7766 10.8382 25.7526 10.626 25.7047 10.5263C25.6604 10.423 25.5755 10.3399 25.45 10.2772C25.3282 10.2107 25.1547 10.1775 24.9295 10.1775C24.7007 10.1775 24.5198 10.2292 24.3869 10.3325C24.2577 10.4359 24.1525 10.6297 24.0713 10.9139ZM25.7766 12.1763C25.6142 12.2427 25.3614 12.3202 25.0181 12.4088C24.6232 12.5122 24.3648 12.6266 24.243 12.7521C24.1212 12.8776 24.0603 13.04 24.0603 13.2393C24.0603 13.4645 24.1267 13.6546 24.2596 13.8096C24.3961 13.9609 24.5659 14.0366 24.769 14.0366C24.9498 14.0366 25.1288 13.9757 25.306 13.8539C25.4832 13.7284 25.605 13.5807 25.6714 13.411C25.7416 13.2412 25.7766 12.933 25.7766 12.4863V12.1763ZM32.6754 15H31.3964V11.9991C31.3964 11.3974 31.3724 10.9969 31.3245 10.7976C31.2765 10.5983 31.186 10.4451 31.0532 10.3381C30.924 10.231 30.7763 10.1775 30.6102 10.1775C30.3961 10.1775 30.2023 10.2476 30.0289 10.3879C29.8554 10.5245 29.7336 10.7146 29.6634 10.9582C29.5933 11.2018 29.5582 11.6613 29.5582 12.3368V15H28.2792V9.11998H29.4641V9.98372C29.6745 9.65151 29.9107 9.40236 30.1728 9.23626C30.4386 9.07015 30.732 8.9871 31.0532 8.9871C31.426 8.9871 31.7397 9.08492 31.9944 9.28055C32.2528 9.47249 32.43 9.72164 32.5259 10.028C32.6256 10.3307 32.6754 10.7699 32.6754 11.3458V15ZM38.3561 15H37.0771V11.9991C37.0771 11.3974 37.0531 10.9969 37.0051 10.7976C36.9572 10.5983 36.8667 10.4451 36.7338 10.3381C36.6047 10.231 36.457 10.1775 36.2909 10.1775C36.0768 10.1775 35.883 10.2476 35.7096 10.3879C35.5361 10.5245 35.4143 10.7146 35.3441 10.9582C35.274 11.2018 35.2389 11.6613 35.2389 12.3368V15H33.9599V9.11998H35.1448V9.98372C35.3552 9.65151 35.5914 9.40236 35.8535 9.23626C36.1193 9.07015 36.4127 8.9871 36.7338 8.9871C37.1067 8.9871 37.4204 9.08492 37.6751 9.28055C37.9335 9.47249 38.1106 9.72164 38.2066 10.028C38.3063 10.3307 38.3561 10.7699 38.3561 11.3458V15ZM40.604 10.9139L39.4468 10.6592C39.5871 10.0649 39.8178 9.63859 40.1389 9.38021C40.4638 9.11814 40.9289 8.9871 41.5342 8.9871C42.0731 8.9871 42.4847 9.06277 42.7689 9.21411C43.0531 9.36545 43.2561 9.57215 43.3779 9.83422C43.4997 10.0926 43.5606 10.5651 43.5606 11.2516L43.5496 13.0677C43.5496 13.5771 43.5699 13.9572 43.6105 14.2082C43.6511 14.4556 43.7267 14.7195 43.8375 15H42.5751L42.409 14.3577C42.1912 14.6161 41.9568 14.8099 41.7058 14.9391C41.4585 15.0683 41.1946 15.1329 40.9141 15.1329C40.4453 15.1329 40.0614 14.976 39.7624 14.6623C39.4635 14.3448 39.314 13.924 39.314 13.3999C39.314 13.0677 39.3749 12.7779 39.4967 12.5306C39.6185 12.2833 39.7901 12.0858 40.0116 11.9382C40.2331 11.7905 40.5874 11.6595 41.0747 11.5451C41.6652 11.4085 42.0768 11.2812 42.3093 11.163C42.3093 10.8382 42.2854 10.626 42.2374 10.5263C42.1931 10.423 42.1082 10.3399 41.9827 10.2772C41.8609 10.2107 41.6874 10.1775 41.4622 10.1775C41.2334 10.1775 41.0525 10.2292 40.9196 10.3325C40.7904 10.4359 40.6852 10.6297 40.604 10.9139ZM42.3093 12.1763C42.1469 12.2427 41.8941 12.3202 41.5508 12.4088C41.1559 12.5122 40.8975 12.6266 40.7757 12.7521C40.6539 12.8776 40.593 13.04 40.593 13.2393C40.593 13.4645 40.6594 13.6546 40.7923 13.8096C40.9289 13.9609 41.0986 14.0366 41.3017 14.0366C41.4825 14.0366 41.6615 13.9757 41.8387 13.8539C42.0159 13.7284 42.1377 13.5807 42.2041 13.411C42.2743 13.2412 42.3093 12.933 42.3093 12.4863V12.1763ZM48.6378 15H47.3588V9.11998H48.5437V9.95603C48.7467 9.56477 48.9276 9.30639 49.0863 9.18089C49.2487 9.0517 49.4351 8.9871 49.6455 8.9871C49.9371 8.9871 50.2158 9.08492 50.4816 9.28055L50.0829 10.6371C49.8725 10.4673 49.6732 10.3824 49.485 10.3824C49.3078 10.3824 49.1509 10.4488 49.0143 10.5817C48.8815 10.7109 48.7855 10.9471 48.7264 11.2904C48.6674 11.6337 48.6378 12.2649 48.6378 13.1839V15ZM53.8313 13.1286L55.0992 13.3888C54.9294 13.9794 54.6655 14.4186 54.3075 14.7066C53.9494 14.9908 53.5139 15.1329 53.0008 15.1329C52.2884 15.1329 51.7384 14.8948 51.3508 14.4186C50.8931 13.865 50.6643 13.0898 50.6643 12.0932C50.6643 11.1114 50.895 10.3251 51.3564 9.73456C51.7476 9.23626 52.2533 8.9871 52.8734 8.9871C53.5637 8.9871 54.1044 9.24179 54.4957 9.75117C54.946 10.3344 55.1712 11.1944 55.1712 12.3313L55.1656 12.5085H51.9709C51.9783 12.9736 52.0817 13.3334 52.281 13.5881C52.484 13.8428 52.7276 13.9702 53.0119 13.9702C53.4216 13.9702 53.6947 13.6896 53.8313 13.1286ZM53.9033 11.5561C53.8922 11.0984 53.7944 10.7552 53.6098 10.5263C53.4253 10.2938 53.2056 10.1775 52.951 10.1775C52.6815 10.1775 52.4545 10.2975 52.2699 10.5374C52.0817 10.781 51.9894 11.1206 51.9931 11.5561H53.9033ZM60.4089 10.8585L59.1521 11.1354C59.0598 10.5189 58.7701 10.2107 58.2828 10.2107C57.9691 10.2107 57.7162 10.3436 57.5243 10.6094C57.3324 10.8751 57.2364 11.3236 57.2364 11.9548C57.2364 12.6524 57.3324 13.1452 57.5243 13.4331C57.7162 13.721 57.9728 13.865 58.2939 13.865C58.5338 13.865 58.7313 13.7838 58.8863 13.6214C59.0414 13.4553 59.1521 13.1636 59.2185 12.7465L60.4754 13.0068C60.217 14.4242 59.4732 15.1329 58.2441 15.1329C57.4579 15.1329 56.8747 14.8339 56.4945 14.2359C56.1143 13.638 55.9242 12.9182 55.9242 12.0766C55.9242 11.0689 56.1383 10.303 56.5664 9.77886C56.9983 9.25102 57.5631 8.9871 58.2607 8.9871C58.8254 8.9871 59.285 9.13659 59.6393 9.43558C59.9974 9.73456 60.2539 10.2089 60.4089 10.8585ZM61.0789 11.9769C61.0789 11.4011 61.1933 10.877 61.4222 10.4045C61.651 9.93204 61.95 9.57769 62.3191 9.34145C62.6882 9.10522 63.1035 8.9871 63.5649 8.9871C64.34 8.9871 64.9491 9.29162 65.392 9.90066C65.8349 10.506 66.0564 11.2147 66.0564 12.0268C66.0564 12.6321 65.9401 13.1784 65.7076 13.6656C65.4787 14.1529 65.1761 14.5201 64.7996 14.7675C64.4268 15.0111 64.017 15.1329 63.5704 15.1329C62.8543 15.1329 62.2601 14.8597 61.7876 14.3134C61.3151 13.7672 61.0789 12.9883 61.0789 11.9769ZM62.3856 12.06C62.3856 12.6543 62.5018 13.1046 62.7344 13.411C62.9669 13.7136 63.2474 13.865 63.576 13.865C63.8971 13.865 64.1721 13.7118 64.4009 13.4054C64.6298 13.0991 64.7442 12.6469 64.7442 12.0489C64.7442 11.4657 64.6279 11.0209 64.3954 10.7146C64.1628 10.4082 63.8842 10.255 63.5593 10.255C63.2382 10.255 62.9614 10.4082 62.7288 10.7146C62.5 11.0209 62.3856 11.4694 62.3856 12.06ZM66.9589 9.11998H68.1327V9.92281C68.3431 9.60906 68.5738 9.37467 68.8248 9.21965C69.0758 9.06462 69.3471 8.9871 69.6387 8.9871C69.9487 8.9871 70.2164 9.06462 70.4415 9.21965C70.6704 9.37467 70.8568 9.60906 71.0007 9.92281C71.2148 9.60906 71.4437 9.37467 71.6873 9.21965C71.9346 9.06462 72.1967 8.9871 72.4735 8.9871C72.802 8.9871 73.0844 9.06646 73.3206 9.22518C73.5605 9.38021 73.7414 9.60353 73.8632 9.89513C73.9887 10.1867 74.0515 10.6352 74.0515 11.2406V15H72.7725V11.6392C72.7725 11.0523 72.7208 10.6629 72.6174 10.4709C72.5141 10.2753 72.3406 10.1775 72.097 10.1775C71.8128 10.1775 71.5839 10.3141 71.4104 10.5872C71.237 10.8567 71.1502 11.3864 71.1502 12.1763V15H69.8712V11.7776C69.8712 11.139 69.8362 10.7275 69.766 10.5429C69.6737 10.2993 69.4873 10.1775 69.2068 10.1775C69.0186 10.1775 68.8451 10.2403 68.6864 10.3658C68.5276 10.4912 68.4132 10.6758 68.3431 10.9194C68.273 11.1593 68.2379 11.5672 68.2379 12.143V15H66.9589V9.11998ZM75.2308 9.11998H76.4046V9.92281C76.615 9.60906 76.8457 9.37467 77.0967 9.21965C77.3477 9.06462 77.619 8.9871 77.9106 8.9871C78.2206 8.9871 78.4882 9.06462 78.7134 9.21965C78.9423 9.37467 79.1287 9.60906 79.2726 9.92281C79.4867 9.60906 79.7155 9.37467 79.9592 9.21965C80.2065 9.06462 80.4685 8.9871 80.7454 8.9871C81.0739 8.9871 81.3563 9.06646 81.5925 9.22518C81.8324 9.38021 82.0133 9.60353 82.1351 9.89513C82.2606 10.1867 82.3234 10.6352 82.3234 11.2406V15H81.0444V11.6392C81.0444 11.0523 80.9927 10.6629 80.8893 10.4709C80.786 10.2753 80.6125 10.1775 80.3689 10.1775C80.0847 10.1775 79.8558 10.3141 79.6823 10.5872C79.5088 10.8567 79.4221 11.3864 79.4221 12.1763V15H78.1431V11.7776C78.1431 11.139 78.108 10.7275 78.0379 10.5429C77.9456 10.2993 77.7592 10.1775 77.4787 10.1775C77.2905 10.1775 77.117 10.2403 76.9583 10.3658C76.7995 10.4912 76.6851 10.6758 76.615 10.9194C76.5448 11.1593 76.5098 11.5672 76.5098 12.143V15H75.2308V9.11998ZM86.3984 13.1286L87.6663 13.3888C87.4965 13.9794 87.2326 14.4186 86.8745 14.7066C86.5165 14.9908 86.0809 15.1329 85.5679 15.1329C84.8555 15.1329 84.3055 14.8948 83.9179 14.4186C83.4602 13.865 83.2314 13.0898 83.2314 12.0932C83.2314 11.1114 83.4621 10.3251 83.9235 9.73456C84.3147 9.23626 84.8204 8.9871 85.4405 8.9871C86.1308 8.9871 86.6715 9.24179 87.0628 9.75117C87.5131 10.3344 87.7383 11.1944 87.7383 12.3313L87.7327 12.5085H84.538C84.5454 12.9736 84.6488 13.3334 84.8481 13.5881C85.0511 13.8428 85.2947 13.9702 85.5789 13.9702C85.9887 13.9702 86.2618 13.6896 86.3984 13.1286ZM86.4704 11.5561C86.4593 11.0984 86.3615 10.7552 86.1769 10.5263C85.9924 10.2938 85.7727 10.1775 85.518 10.1775C85.2486 10.1775 85.0216 10.2975 84.837 10.5374C84.6488 10.781 84.5565 11.1206 84.5602 11.5561H86.4704ZM93.1587 15H91.8798V11.9991C91.8798 11.3974 91.8558 10.9969 91.8078 10.7976C91.7598 10.5983 91.6694 10.4451 91.5365 10.3381C91.4073 10.231 91.2596 10.1775 91.0935 10.1775C90.8795 10.1775 90.6857 10.2476 90.5122 10.3879C90.3387 10.5245 90.2169 10.7146 90.1468 10.9582C90.0766 11.2018 90.0416 11.6613 90.0416 12.3368V15H88.7626V9.11998H89.9474V9.98372C90.1578 9.65151 90.3941 9.40236 90.6561 9.23626C90.9219 9.07015 91.2154 8.9871 91.5365 8.9871C91.9093 8.9871 92.223 9.08492 92.4777 9.28055C92.7361 9.47249 92.9133 9.72164 93.0093 10.028C93.1089 10.3307 93.1587 10.7699 93.1587 11.3458V15ZM98.8782 15H97.6878V14.1363C97.4922 14.4685 97.2615 14.7176 96.9957 14.8837C96.7299 15.0498 96.4568 15.1329 96.1763 15.1329C95.6374 15.1329 95.1667 14.8653 94.7644 14.3301C94.3658 13.7911 94.1664 13.0234 94.1664 12.0268C94.1664 11.0228 94.3621 10.2661 94.7533 9.75671C95.1446 9.24364 95.6263 8.9871 96.1984 8.9871C96.4679 8.9871 96.7189 9.05539 96.9514 9.19196C97.1876 9.32853 97.4036 9.53339 97.5992 9.80654V6.88314H98.8782V15ZM95.4731 11.9326C95.4731 12.4642 95.5174 12.861 95.606 13.123C95.6983 13.3814 95.8275 13.5771 95.9936 13.7099C96.1634 13.8391 96.3534 13.9037 96.5638 13.9037C96.8444 13.9037 97.088 13.7524 97.2947 13.4497C97.5014 13.147 97.6048 12.6912 97.6048 12.0821C97.6048 11.4067 97.5032 10.9213 97.3002 10.626C97.1009 10.327 96.8462 10.1775 96.5362 10.1775C96.2409 10.1775 95.9899 10.3233 95.7832 10.6149C95.5765 10.9065 95.4731 11.3458 95.4731 11.9326ZM102.627 9.11998H103.8V9.92281C104.011 9.60906 104.241 9.37467 104.492 9.21965C104.743 9.06462 105.015 8.9871 105.306 8.9871C105.616 8.9871 105.884 9.06462 106.109 9.21965C106.338 9.37467 106.524 9.60906 106.668 9.92281C106.882 9.60906 107.111 9.37467 107.355 9.21965C107.602 9.06462 107.864 8.9871 108.141 8.9871C108.47 8.9871 108.752 9.06646 108.988 9.22518C109.228 9.38021 109.409 9.60353 109.531 9.89513C109.656 10.1867 109.719 10.6352 109.719 11.2406V15H108.44V11.6392C108.44 11.0523 108.388 10.6629 108.285 10.4709C108.182 10.2753 108.008 10.1775 107.765 10.1775C107.48 10.1775 107.252 10.3141 107.078 10.5872C106.905 10.8567 106.818 11.3864 106.818 12.1763V15H105.539V11.7776C105.539 11.139 105.504 10.7275 105.434 10.5429C105.341 10.2993 105.155 10.1775 104.874 10.1775C104.686 10.1775 104.513 10.2403 104.354 10.3658C104.195 10.4912 104.081 10.6758 104.011 10.9194C103.941 11.1593 103.906 11.5672 103.906 12.143V15H102.627V9.11998ZM113.794 13.1286L115.062 13.3888C114.892 13.9794 114.628 14.4186 114.27 14.7066C113.912 14.9908 113.477 15.1329 112.964 15.1329C112.251 15.1329 111.701 14.8948 111.314 14.4186C110.856 13.865 110.627 13.0898 110.627 12.0932C110.627 11.1114 110.858 10.3251 111.319 9.73456C111.711 9.23626 112.216 8.9871 112.836 8.9871C113.527 8.9871 114.067 9.24179 114.459 9.75117C114.909 10.3344 115.134 11.1944 115.134 12.3313L115.129 12.5085H111.934C111.941 12.9736 112.045 13.3334 112.244 13.5881C112.447 13.8428 112.691 13.9702 112.975 13.9702C113.384 13.9702 113.658 13.6896 113.794 13.1286ZM113.866 11.5561C113.855 11.0984 113.757 10.7552 113.573 10.5263C113.388 10.2938 113.169 10.1775 112.914 10.1775C112.644 10.1775 112.417 10.2975 112.233 10.5374C112.045 10.781 111.952 11.1206 111.956 11.5561H113.866ZM16.8736 22.12V23.3602H16.0043V25.7299C16.0043 26.243 16.0172 26.5401 16.0431 26.6214C16.0947 26.769 16.1999 26.8428 16.3587 26.8428C16.4768 26.8428 16.6466 26.793 16.868 26.6933L16.9788 27.9003C16.6835 28.0554 16.3494 28.1329 15.9766 28.1329C15.6518 28.1329 15.3916 28.0554 15.1959 27.9003C15.0003 27.7453 14.8693 27.522 14.8028 27.2304C14.7512 27.0163 14.7253 26.5807 14.7253 25.9237V23.3602H14.1384V22.12H14.7253V20.9517L16.0043 20.0437V22.12H16.8736ZM19.044 19.8831V22.8674C19.247 22.5722 19.4703 22.3525 19.7139 22.2086C19.9612 22.0609 20.2288 21.9871 20.5167 21.9871C20.9006 21.9871 21.2218 22.0886 21.4801 22.2916C21.7385 22.4946 21.9231 22.7825 22.0338 23.1554C22.115 23.4285 22.1556 23.8936 22.1556 24.5506V28H20.8822V24.8939C20.8822 24.1741 20.836 23.7238 20.7437 23.5429C20.6146 23.2993 20.3949 23.1775 20.0849 23.1775C19.7564 23.1775 19.4998 23.3104 19.3153 23.5761C19.1344 23.8382 19.044 24.331 19.044 25.0545V28H17.765V19.8831H19.044ZM26.2473 26.1286L27.5152 26.3888C27.3454 26.9794 27.0815 27.4186 26.7234 27.7066C26.3654 27.9908 25.9298 28.1329 25.4168 28.1329C24.7044 28.1329 24.1544 27.8948 23.7668 27.4186C23.3091 26.865 23.0803 26.0898 23.0803 25.0932C23.0803 24.1114 23.3109 23.3251 23.7723 22.7346C24.1636 22.2363 24.6693 21.9871 25.2894 21.9871C25.9797 21.9871 26.5204 22.2418 26.9117 22.7512C27.362 23.3344 27.5872 24.1944 27.5872 25.3313L27.5816 25.5085H24.3869C24.3943 25.9736 24.4977 26.3334 24.697 26.5881C24.9 26.8428 25.1436 26.9702 25.4278 26.9702C25.8375 26.9702 26.1107 26.6896 26.2473 26.1286ZM26.3192 24.5561C26.3082 24.0984 26.2104 23.7552 26.0258 23.5263C25.8412 23.2938 25.6216 23.1775 25.3669 23.1775C25.0975 23.1775 24.8705 23.2975 24.6859 23.5374C24.4977 23.781 24.4054 24.1206 24.4091 24.5561H26.3192ZM35.5988 28H34.3198V24.9991C34.3198 24.3974 34.2958 23.9969 34.2479 23.7976C34.1999 23.5983 34.1094 23.4451 33.9766 23.3381C33.8474 23.231 33.6997 23.1775 33.5336 23.1775C33.3195 23.1775 33.1257 23.2476 32.9523 23.3879C32.7788 23.5245 32.657 23.7146 32.5868 23.9582C32.5167 24.2018 32.4816 24.6613 32.4816 25.3368V28H31.2026V22.12H32.3875V22.9837C32.5979 22.6515 32.8341 22.4024 33.0962 22.2363C33.362 22.0702 33.6554 21.9871 33.9766 21.9871C34.3494 21.9871 34.6631 22.0849 34.9178 22.2805C35.1762 22.4725 35.3534 22.7216 35.4493 23.028C35.549 23.3307 35.5988 23.7699 35.5988 24.3458V28ZM39.6905 26.1286L40.9584 26.3888C40.7886 26.9794 40.5247 27.4186 40.1666 27.7066C39.8086 27.9908 39.373 28.1329 38.86 28.1329C38.1476 28.1329 37.5976 27.8948 37.21 27.4186C36.7523 26.865 36.5235 26.0898 36.5235 25.0932C36.5235 24.1114 36.7541 23.3251 37.2155 22.7346C37.6068 22.2363 38.1125 21.9871 38.7326 21.9871C39.4229 21.9871 39.9636 22.2418 40.3549 22.7512C40.8052 23.3344 41.0304 24.1944 41.0304 25.3313L41.0248 25.5085H37.8301C37.8375 25.9736 37.9409 26.3334 38.1402 26.5881C38.3432 26.8428 38.5868 26.9702 38.871 26.9702C39.2807 26.9702 39.5539 26.6896 39.6905 26.1286ZM39.7624 24.5561C39.7514 24.0984 39.6536 23.7552 39.469 23.5263C39.2844 23.2938 39.0648 23.1775 38.8101 23.1775C38.5407 23.1775 38.3137 23.2975 38.1291 23.5374C37.9409 23.781 37.8486 24.1206 37.8523 24.5561H39.7624ZM41.4511 28L43.1897 24.9714L41.5231 22.12H43.0845L43.9371 23.7367L44.8341 22.12H46.329L44.6957 24.905L46.484 28H44.9171L43.9371 26.1784L42.9405 28H41.4511ZM49.4407 22.12V23.3602H48.5714V25.7299C48.5714 26.243 48.5843 26.5401 48.6102 26.6214C48.6618 26.769 48.767 26.8428 48.9257 26.8428C49.0439 26.8428 49.2137 26.793 49.4351 26.6933L49.5459 27.9003C49.2506 28.0554 48.9165 28.1329 48.5437 28.1329C48.2189 28.1329 47.9587 28.0554 47.763 27.9003C47.5674 27.7453 47.4364 27.522 47.3699 27.2304C47.3182 27.0163 47.2924 26.5807 47.2924 25.9237V23.3602H46.7055V22.12H47.2924V20.9517L48.5714 20.0437V22.12H49.4407ZM52.8679 28V19.8831H54.1469V22.8065C54.3425 22.5334 54.5566 22.3285 54.7892 22.192C55.0254 22.0554 55.2782 21.9871 55.5477 21.9871C56.1161 21.9871 56.596 22.2436 56.9872 22.7567C57.3822 23.2698 57.5797 24.0265 57.5797 25.0268C57.5797 26.0234 57.3785 26.7911 56.9762 27.3301C56.5738 27.8653 56.1014 28.1329 55.5588 28.1329C55.2819 28.1329 55.0088 28.048 54.7393 27.8782C54.4699 27.7084 54.241 27.4611 54.0528 27.1363V28H52.8679ZM54.1358 24.9326C54.1358 25.4383 54.1838 25.8241 54.2798 26.0898C54.3757 26.3556 54.5123 26.5586 54.6895 26.6989C54.8667 26.8354 55.0531 26.9037 55.2487 26.9037C55.5292 26.9037 55.7692 26.7579 55.9685 26.4663C56.1678 26.171 56.2675 25.7059 56.2675 25.0711C56.2675 24.403 56.166 23.9213 55.9629 23.626C55.7636 23.327 55.5089 23.1775 55.1989 23.1775C54.9036 23.1775 54.6526 23.3215 54.4459 23.6094C54.2392 23.8973 54.1358 24.3384 54.1358 24.9326ZM58.3105 24.9769C58.3105 24.4011 58.4249 23.877 58.6538 23.4045C58.8826 22.932 59.1816 22.5777 59.5507 22.3415C59.9199 22.1052 60.3351 21.9871 60.7965 21.9871C61.5717 21.9871 62.1807 22.2916 62.6236 22.9007C63.0666 23.506 63.288 24.2147 63.288 25.0268C63.288 25.6321 63.1718 26.1784 62.9392 26.6656C62.7104 27.1529 62.4077 27.5201 62.0312 27.7675C61.6584 28.0111 61.2487 28.1329 60.802 28.1329C60.086 28.1329 59.4917 27.8597 59.0192 27.3134C58.5468 26.7672 58.3105 25.9883 58.3105 24.9769ZM59.6172 25.06C59.6172 25.6543 59.7335 26.1046 59.966 26.411C60.1985 26.7136 60.4791 26.865 60.8076 26.865C61.1287 26.865 61.4037 26.7118 61.6326 26.4054C61.8614 26.0991 61.9758 25.6469 61.9758 25.0489C61.9758 24.4657 61.8596 24.0209 61.627 23.7146C61.3945 23.4082 61.1158 23.255 60.791 23.255C60.4698 23.255 60.193 23.4082 59.9605 23.7146C59.7316 24.0209 59.6172 24.4694 59.6172 25.06ZM63.9912 24.9769C63.9912 24.4011 64.1056 23.877 64.3345 23.4045C64.5633 22.932 64.8623 22.5777 65.2314 22.3415C65.6006 22.1052 66.0158 21.9871 66.4772 21.9871C67.2524 21.9871 67.8614 22.2916 68.3043 22.9007C68.7473 23.506 68.9687 24.2147 68.9687 25.0268C68.9687 25.6321 68.8525 26.1784 68.6199 26.6656C68.3911 27.1529 68.0884 27.5201 67.7119 27.7675C67.3391 28.0111 66.9294 28.1329 66.4827 28.1329C65.7667 28.1329 65.1724 27.8597 64.6999 27.3134C64.2274 26.7672 63.9912 25.9883 63.9912 24.9769ZM65.2979 25.06C65.2979 25.6543 65.4142 26.1046 65.6467 26.411C65.8792 26.7136 66.1598 26.865 66.4883 26.865C66.8094 26.865 67.0844 26.7118 67.3133 26.4054C67.5421 26.0991 67.6565 25.6469 67.6565 25.0489C67.6565 24.4657 67.5403 24.0209 67.3077 23.7146C67.0752 23.4082 66.7965 23.255 66.4717 23.255C66.1505 23.255 65.8737 23.4082 65.6412 23.7146C65.4123 24.0209 65.2979 24.4694 65.2979 25.06ZM69.9266 28V19.8831H71.2056V24.1907L72.695 22.12H74.2674L72.6174 24.2682L74.3837 28H73.0106L71.7925 25.359L71.2056 26.1175V28H69.9266ZM79.937 22.12V23.3602H79.0677V25.7299C79.0677 26.243 79.0807 26.5401 79.1065 26.6214C79.1582 26.769 79.2634 26.8428 79.4221 26.8428C79.5402 26.8428 79.71 26.793 79.9315 26.6933L80.0422 27.9003C79.7469 28.0554 79.4129 28.1329 79.0401 28.1329C78.7152 28.1329 78.455 28.0554 78.2594 27.9003C78.0638 27.7453 77.9327 27.522 77.8663 27.2304C77.8146 27.0163 77.7888 26.5807 77.7888 25.9237V23.3602H77.2019V22.12H77.7888V20.9517L79.0677 20.0437V22.12H79.937ZM80.535 24.9769C80.535 24.4011 80.6494 23.877 80.8783 23.4045C81.1071 22.932 81.4061 22.5777 81.7752 22.3415C82.1443 22.1052 82.5596 21.9871 83.021 21.9871C83.7961 21.9871 84.4052 22.2916 84.8481 22.9007C85.291 23.506 85.5125 24.2147 85.5125 25.0268C85.5125 25.6321 85.3962 26.1784 85.1637 26.6656C84.9348 27.1529 84.6322 27.5201 84.2557 27.7675C83.8829 28.0111 83.4731 28.1329 83.0265 28.1329C82.3104 28.1329 81.7162 27.8597 81.2437 27.3134C80.7712 26.7672 80.535 25.9883 80.535 24.9769ZM81.8417 25.06C81.8417 25.6543 81.9579 26.1046 82.1905 26.411C82.423 26.7136 82.7035 26.865 83.0321 26.865C83.3532 26.865 83.6282 26.7118 83.857 26.4054C84.0859 26.0991 84.2003 25.6469 84.2003 25.0489C84.2003 24.4657 84.084 24.0209 83.8515 23.7146C83.6189 23.4082 83.3403 23.255 83.0154 23.255C82.6943 23.255 82.4175 23.4082 82.1849 23.7146C81.9561 24.0209 81.8417 24.4694 81.8417 25.06ZM90.3295 28H89.0505V22.12H90.2354V22.956C90.4384 22.5648 90.6192 22.3064 90.778 22.1809C90.9404 22.0517 91.1268 21.9871 91.3372 21.9871C91.6288 21.9871 91.9074 22.0849 92.1732 22.2805L91.7746 23.6371C91.5642 23.4673 91.3648 23.3824 91.1766 23.3824C90.9994 23.3824 90.8425 23.4488 90.706 23.5817C90.5731 23.7109 90.4771 23.9471 90.4181 24.2904C90.359 24.6337 90.3295 25.2649 90.3295 26.1839V28ZM95.5229 26.1286L96.7908 26.3888C96.6211 26.9794 96.3571 27.4186 95.9991 27.7066C95.6411 27.9908 95.2055 28.1329 94.6924 28.1329C93.98 28.1329 93.43 27.8948 93.0425 27.4186C92.5848 26.865 92.3559 26.0898 92.3559 25.0932C92.3559 24.1114 92.5866 23.3251 93.048 22.7346C93.4393 22.2363 93.945 21.9871 94.5651 21.9871C95.2553 21.9871 95.7961 22.2418 96.1873 22.7512C96.6377 23.3344 96.8628 24.1944 96.8628 25.3313L96.8573 25.5085H93.6626C93.67 25.9736 93.7733 26.3334 93.9726 26.5881C94.1757 26.8428 94.4193 26.9702 94.7035 26.9702C95.1132 26.9702 95.3864 26.6896 95.5229 26.1286ZM95.5949 24.5561C95.5838 24.0984 95.486 23.7552 95.3015 23.5263C95.1169 23.2938 94.8973 23.1775 94.6426 23.1775C94.3731 23.1775 94.1461 23.2975 93.9616 23.5374C93.7733 23.781 93.681 24.1206 93.6847 24.5561H95.5949ZM98.8505 23.9139L97.6933 23.6592C97.8336 23.0649 98.0643 22.6386 98.3854 22.3802C98.7102 22.1181 99.1753 21.9871 99.7807 21.9871C100.32 21.9871 100.731 22.0628 101.015 22.2141C101.3 22.3654 101.503 22.5722 101.624 22.8342C101.746 23.0926 101.807 23.5651 101.807 24.2516L101.796 26.0677C101.796 26.5771 101.816 26.9572 101.857 27.2082C101.898 27.4556 101.973 27.7195 102.084 28H100.822L100.655 27.3577C100.438 27.6161 100.203 27.8099 99.9523 27.9391C99.705 28.0683 99.4411 28.1329 99.1606 28.1329C98.6918 28.1329 98.3079 27.976 98.0089 27.6623C97.7099 27.3448 97.5605 26.924 97.5605 26.3999C97.5605 26.0677 97.6214 25.7779 97.7432 25.5306C97.865 25.2833 98.0366 25.0858 98.2581 24.9382C98.4796 24.7905 98.8339 24.6595 99.3211 24.5451C99.9117 24.4085 100.323 24.2812 100.556 24.163C100.556 23.8382 100.532 23.626 100.484 23.5263C100.44 23.423 100.355 23.3399 100.229 23.2772C100.107 23.2107 99.9339 23.1775 99.7087 23.1775C99.4799 23.1775 99.299 23.2292 99.1661 23.3325C99.0369 23.4359 98.9317 23.6297 98.8505 23.9139ZM100.556 25.1763C100.393 25.2427 100.141 25.3202 99.7973 25.4088C99.4023 25.5122 99.144 25.6266 99.0222 25.7521C98.9003 25.8776 98.8394 26.04 98.8394 26.2393C98.8394 26.4645 98.9059 26.6546 99.0388 26.8096C99.1753 26.9609 99.3451 27.0366 99.5481 27.0366C99.729 27.0366 99.908 26.9757 100.085 26.8539C100.262 26.7284 100.384 26.5807 100.451 26.411C100.521 26.2412 100.556 25.933 100.556 25.4863V25.1763ZM107.493 28H106.303V27.1363C106.107 27.4685 105.877 27.7176 105.611 27.8837C105.345 28.0498 105.072 28.1329 104.791 28.1329C104.253 28.1329 103.782 27.8653 103.38 27.3301C102.981 26.7911 102.782 26.0234 102.782 25.0268C102.782 24.0228 102.977 23.2661 103.368 22.7567C103.76 22.2436 104.241 21.9871 104.814 21.9871C105.083 21.9871 105.334 22.0554 105.567 22.192C105.803 22.3285 106.019 22.5334 106.214 22.8065V19.8831H107.493V28ZM104.088 24.9326C104.088 25.4642 104.133 25.861 104.221 26.123C104.313 26.3814 104.443 26.5771 104.609 26.7099C104.779 26.8391 104.969 26.9037 105.179 26.9037C105.46 26.9037 105.703 26.7524 105.91 26.4497C106.117 26.147 106.22 25.6912 106.22 25.0821C106.22 24.4067 106.118 23.9213 105.915 23.626C105.716 23.327 105.461 23.1775 105.151 23.1775C104.856 23.1775 104.605 23.3233 104.398 23.6149C104.192 23.9065 104.088 24.3458 104.088 24.9326ZM111.491 25.9071H110.334L110.328 25.5528C110.328 25.0766 110.391 24.6909 110.516 24.3956C110.642 24.1003 110.886 23.7755 111.247 23.4211C111.65 23.0225 111.891 22.7493 111.973 22.6017C112.054 22.454 112.094 22.2824 112.094 22.0868C112.094 21.7656 111.989 21.5017 111.779 21.295C111.572 21.0883 111.31 20.985 110.993 20.985C110.31 20.985 109.889 21.4408 109.73 22.3525L108.562 22.1754C108.595 21.4814 108.833 20.913 109.276 20.47C109.723 20.0234 110.282 19.8001 110.954 19.8001C111.637 19.8001 112.205 20.0234 112.659 20.47C113.113 20.9167 113.34 21.474 113.34 22.1421C113.34 22.4817 113.261 22.8047 113.102 23.1111C112.943 23.4137 112.602 23.829 112.078 24.3568C111.808 24.63 111.64 24.8496 111.574 25.0157C111.511 25.1818 111.484 25.4789 111.491 25.9071ZM110.334 28V26.4442H111.613V28H110.334Z" fill="#2F2516"/>
</svg>
