<svg width="362" height="494" viewBox="0 0 362 494" fill="none" xmlns="http://www.w3.org/2000/svg">
<path d="M22.389 50H68.9167C68.3615 56.7146 69.0677 63.7719 68.5372 70.5231C68.4905 71.1208 68.6725 71.8177 68.9827 72.3306C72.6593 74.3388 89.72 71.8557 91.5928 74.5207C91.4975 76.275 91.237 77.9438 90.9658 79.676C90.2895 83.9908 90.586 88.5455 90.588 92.9128L90.5918 113.226L90.588 122.746C90.5857 133.714 90.7983 145.525 90.456 156.442C92.7693 158.982 131.564 155.986 135.286 158.177C136.789 159.062 135.167 173.443 135.633 177.64C141.823 178.41 151.087 178.647 157.255 178.028C157.719 177.328 157.67 176.894 157.734 176.056C158.147 172.587 157.206 162.507 158.413 160.446L158.576 160.954L158.808 161.028C159.831 159.655 159.95 159.192 161.708 159.077C174.506 158.242 189.349 160.237 201.869 158.13C204.175 157.783 203.695 155.913 203.668 154.083C203.542 145.6 203.619 137.105 203.62 128.618L203.622 82.3893L203.616 50.07C203.616 44.56 202.949 28.2613 205.455 24.4125C206.911 23.4307 213.685 24.0328 216.429 23.5924C214.507 23.3336 207.055 23.7184 206.21 23.4513C206.91 23.0157 220.446 22.9923 222.81 22.7593L223.861 22.4352C225.002 21.199 224.497 3.04958 224.516 0H270.212C270.037 3.9611 269.825 18.964 270.56 22.333L271.36 24.0624L271.793 23.4006C272.885 23.3074 275.53 23.8469 276.885 23.8789C283 24.0232 286.49 23.6774 292.49 24.9071C293.365 26.2855 292.397 27.998 293.188 29.1752L293.237 224.307C302.982 224.952 313.568 224.328 323.375 224.529C327.812 224.62 333.635 224.17 337.85 225.04C338.413 225.74 337.015 241.438 337.682 243.803C338.27 245.892 338.402 245.542 340.53 246.168C343.717 247.61 355.065 245.623 358.383 247.074C360.443 251.055 359.883 262.098 359.88 266.848L359.875 292.385L359.888 315.582C359.893 319.647 359.933 323.817 359.828 327.892C359.788 329.447 358.868 332.472 358.45 334.062C358.355 334.43 357.532 334.992 357.182 335.245L358.565 335.285C357.793 337.228 342.338 335.588 339.983 336.575C339.01 336.823 338.72 336.713 338.152 337.315C337.277 340.948 337.508 347.175 337.533 351.062L337.598 366.763C337.6 367.83 337.678 372.773 337.535 373.608C336.403 375.623 337.637 379.153 337.05 380.418C336.885 379.688 336.94 379.288 336.492 378.883C336.655 381.155 335.805 381.317 335.86 383.655C334.71 384.447 319.375 383.5 316.48 383.99C314.823 390.452 316.08 398.495 315.848 405.198C311.303 405.425 307.312 405.467 302.75 405.462C299.28 405.46 296.885 405.692 293.3 405.332L292.635 425.005C292.54 428.745 293.013 447.797 292.008 449.8C289.99 449.985 287.645 449.88 285.867 450.078C280.307 450.7 276.195 451.038 270.555 450.788C269.702 456.15 270.533 461.145 270.73 466.503C270.923 471.665 270.938 476.988 270.918 482.163C270.905 485.723 271.077 490.59 270.675 494H45.6213C44.8248 480.395 46.0225 464.852 45.406 451.205C43.7067 451.037 42.1387 450.972 40.432 450.902C39.7877 450.415 27.3847 449.975 25.4697 449.888C25.424 449.31 25.325 448.932 25.2015 448.367C24.5367 447.88 24.923 448.027 23.9437 448.11L23.6836 446.88L23.5182 446.967C23.5624 447.947 23.736 448.65 23.1953 449.42C22.654 442.45 22.8274 435.505 22.8306 428.51L22.8174 399.415C22.8139 395.568 23.3322 386.745 22.6826 383.555C21.9675 382.55 21.2634 382.283 19.9876 382.203C13.3361 381.778 6.67455 382.313 0 382.013V73.158C7.41062 73.2144 14.8217 73.1632 22.2308 73.0045C22.7016 70.8259 22.4233 65.335 22.3836 62.8965C22.3326 58.5978 22.3344 54.2986 22.389 50Z" fill="black"/>
<path d="M68.5731 72.9564C68.2989 81.8148 68.4696 91.4623 68.4651 100.369L68.4386 101.155L67.6934 222.062L67.5601 268.465C67.5336 276.295 67.7521 285.623 67.4031 293.3C72.9864 293.165 84.7404 293.533 89.5449 292.71C89.4914 297.208 89.4719 301.708 89.4864 306.208C89.4856 308.455 89.5699 312.458 89.2971 314.59C99.1109 314.365 108.927 314.26 118.743 314.278C124.149 314.278 130.78 314.113 136.057 314.508C135.741 312.993 135.75 311.453 135.741 309.91C135.711 304.278 135.858 298.64 135.686 293.01C139.796 293.068 153.788 293.413 157.248 292.79L157.198 314.548C163.526 314.508 173.443 314.713 179.468 314.128C179.459 322.085 179.621 330.678 179.429 338.595C186.434 338.13 196.434 338.72 202.515 337.808C202.462 344.968 202.696 353.043 202.443 360.05C209.96 359.818 217.48 359.723 225.001 359.763C232.747 359.725 240.185 359.603 247.937 359.783C247.913 355.31 247.926 350.838 247.977 346.365C247.988 344.243 248.062 340.285 247.81 338.263C255.502 338.388 263.612 338.05 271.21 338.52C270.867 335.463 271.005 330.488 271.03 327.273C271.065 323.343 270.93 318.308 271.217 314.455L255.697 314.26C253.237 314.235 249.052 314.325 246.707 314.07C247.01 322.018 246.648 329.898 247.049 337.7C238.075 337.575 229.1 337.535 220.125 337.58C214.952 337.56 208.524 337.298 203.489 337.453L203.508 292.79C208.979 293.573 219.098 292.668 225.538 293.26C225.513 285.465 225.624 277.515 225.515 269.748C240.191 270.528 256.38 269.438 271.195 270.198C270.842 263.25 271.177 253.588 271.205 246.485C285.677 246.613 300.152 246.474 314.622 246.068C321.257 245.941 328.237 246.127 334.812 245.855C335.71 245.795 336.735 245.601 337.47 246.025C337.862 246.998 337.59 263.958 337.587 266.245V310.785C337.59 319.218 337.415 328.385 337.715 336.76C329.89 336.688 321.992 336.888 314.22 336.775C314.63 352.025 313.712 368.858 314.505 383.76C308.042 383.63 298.275 383.873 292.255 383.37C292.365 390.61 292.137 397.81 292.22 405C284.822 404.93 276.722 404.655 269.427 404.985C270.025 410.355 269.952 417.59 269.98 423.123L269.997 450.5C262.077 450.44 254.637 450.36 246.709 450.505C246.745 458.588 246.593 466.43 246.493 474.508L66.2474 474.453C66.7754 467.39 66.3811 457.265 66.4966 449.71C59.3169 449.678 52.1371 449.683 44.9574 449.725C45.0959 448 45.1844 446.285 45.2139 444.553C45.5696 423.705 45.1119 402.828 45.4554 381.985C37.5529 382.033 29.6436 381.86 21.7539 381.918C22.1854 379.228 22.1025 373.765 22.1281 370.873L22.2256 351.733L22.2244 285.5L22.2364 110.319L22.232 102.063C22.2304 92.7398 21.9901 82.244 22.2307 73.0046C37.6139 72.7608 53.4534 73.2801 68.5731 72.9564Z" fill="#FEFEFE"/>
<path d="M232.624 22.1203C241.234 22.0506 249.844 22.0255 258.455 22.045C262.087 22.0467 266.677 22.2241 270.215 22.0492C269.835 34.0687 270.097 47.2584 270.152 59.3317L270.735 138.884L270.732 205.888C270.72 218.368 270.337 233.826 271.05 246.114C268.537 245.922 265.355 245.979 262.79 245.957C255.275 245.984 247.758 245.961 240.241 245.888C235.626 245.799 228.932 245.408 224.616 245.636C224.776 237.967 224.642 229.947 224.614 222.252L224.02 156.628L224.506 22.2354L232.624 22.1203Z" fill="#FEFEFE"/>
<path d="M160.881 178.364C174.846 178.109 188.829 178.403 202.774 178.272C202.427 185.103 202.529 192.236 202.526 199.098L202.519 229.293C202.518 249.764 202.084 271.993 202.717 292.328L200.562 292.305C186.387 292.338 172.212 292.248 158.038 292.035C157.637 264.453 158.329 236.486 158.026 208.875C157.916 198.83 158.225 188.54 157.947 178.529L160.881 178.364Z" fill="#FEFEFE"/>
<path d="M92.7183 178.365C106.621 178.095 121.484 178.667 135.196 178.177C134.764 188.925 134.987 200.933 134.984 211.746L134.868 271.4C134.815 275.24 134.81 279.083 134.852 282.923C134.884 284.445 135.316 291.338 134.782 292.365L134.063 292.445C119.653 292.125 104.913 292.203 90.4268 292.01L90.5368 213.899L90.5225 189.572C90.5198 187.402 90.3355 180.427 90.5628 178.778C91.2423 178.208 91.576 178.412 92.7183 178.365Z" fill="#FEFEFE"/>
<path d="M201.958 157.439C202.984 149.151 202.662 143.557 202.647 135.225L202.64 108.337C202.64 83.7924 202.662 59.2449 202.604 34.7007C202.6 32.9807 201.797 24.0887 202.656 23.1677C205.894 21.8548 219.119 22.2065 222.81 22.7593C220.446 22.9923 206.91 23.0156 206.21 23.4512C207.055 23.7183 214.507 23.3335 216.429 23.5923C213.685 24.0327 206.911 23.4306 205.455 24.4124C202.949 28.2612 203.616 44.5599 203.616 50.0699L203.622 82.3892L203.621 128.618C203.619 137.105 203.542 145.6 203.668 154.083C203.695 155.913 204.175 157.783 201.869 158.13C200.833 157.983 199.535 158.055 198.833 157.539L201.958 157.439Z" fill="black" fill-opacity="0.898039"/>
<path d="M340.53 246.168C342.642 246.01 345.937 246.175 348.142 246.22C352.985 246.32 357.012 245.688 361.652 247.193C361.437 250.43 361.007 254.25 360.92 257.39C360.765 262.93 360.837 268.738 360.835 274.303L360.837 303.978C360.837 309.768 361.132 318.808 360.797 324.383C360.442 326.133 361.457 331.875 361.077 333.565L360.257 333.305C359.175 334.258 360.127 335.063 358.542 336.733C356.317 336.79 341.342 336.855 339.982 336.575C342.337 335.588 357.792 337.228 358.565 335.285L357.182 335.245C357.532 334.993 358.355 334.43 358.45 334.063C358.867 332.473 359.787 329.448 359.827 327.893C359.932 323.818 359.892 319.648 359.887 315.583L359.875 292.385L359.88 266.848C359.882 262.098 360.442 251.055 358.382 247.074C355.065 245.623 343.717 247.61 340.53 246.168Z" fill="black" fill-opacity="0.85098"/>
<path d="M157.734 176.056C157.345 173.744 156.816 159.048 158.006 157.871C161.024 157.124 171.464 157.346 175.062 157.385C182.774 157.469 191.181 157.231 198.832 157.54C199.534 158.055 200.833 157.983 201.869 158.13C189.349 160.237 174.506 158.242 161.708 159.077C159.95 159.192 159.831 159.655 158.808 161.028L158.576 160.954L158.413 160.446C157.206 162.507 158.147 172.587 157.734 176.056Z" fill="black" fill-opacity="0.921569"/>
<path d="M22.6829 383.555C23.3325 386.745 22.8141 395.567 22.8176 399.415L22.8309 428.51C22.8277 435.505 22.6543 442.45 23.1956 449.42C23.7363 448.65 23.5627 447.947 23.5184 446.967L23.6839 446.88L23.944 448.11C24.9233 448.027 24.537 447.88 25.2018 448.367C25.3253 448.932 25.4243 449.31 25.47 449.887C27.385 449.975 39.788 450.415 40.4323 450.902C34.6078 450.915 28.1885 451.085 22.4246 450.9L22.3229 404.147C22.3235 399.74 22.0332 387.287 22.6829 383.555Z" fill="black" fill-opacity="0.901961"/>
<path d="M270.56 22.3327C276.89 22.6759 286.37 22.3166 292.95 22.2383C293.103 24.5621 293.303 26.8472 293.188 29.175C292.398 27.9977 293.365 26.2852 292.49 24.9069C286.49 23.6772 283 24.0229 276.885 23.8786C275.53 23.8466 272.885 23.3072 271.793 23.4004L271.36 24.0622L270.56 22.3327Z" fill="black" fill-opacity="0.92549"/>
<path d="M337.535 373.607C338.142 375.952 338.087 381.635 338.152 384.157C333.515 384.35 320.845 384.662 316.48 383.99C319.375 383.5 334.71 384.447 335.86 383.655C335.805 381.317 336.655 381.155 336.492 378.882C336.94 379.287 336.885 379.687 337.05 380.417C337.637 379.152 336.402 375.622 337.535 373.607Z" fill="black" fill-opacity="0.65098"/>
<path d="M360.797 324.383L361.08 324.265C361.202 325.75 361.087 327.105 361.195 328.495C361.412 331.293 361.802 333.41 361.65 336.25C360.515 336.383 359.662 336.468 358.542 336.733C360.127 335.063 359.175 334.258 360.257 333.305L361.077 333.565C361.457 331.875 360.442 326.133 360.797 324.383Z" fill="black" fill-opacity="0.658824"/>
</svg>
