<svg width="224" height="500" viewBox="0 0 224 500" fill="none" xmlns="http://www.w3.org/2000/svg">
<path d="M137.861 0H223.998L223.99 17.2787L137.806 17.2829C137.781 11.5219 137.799 5.76073 137.861 0Z" fill="black"/>
<path d="M137.862 0C137.799 5.76073 137.781 11.5222 137.807 17.2832C137.829 22.701 137.69 29.1352 137.895 34.4678L120.661 34.4902C120.332 55.9252 120.624 78.0221 120.624 99.5088L120.62 224.272L120.65 465.538L137.785 465.575C137.899 471.304 137.902 477.037 137.788 482.766H223.969L224.006 500H137.865C137.723 494.407 137.803 488.421 137.784 482.799L86.2785 482.803L86.2365 500H0.0607518C-0.038491 494.37 0.0666112 488.428 0.0841893 482.776L86.2238 482.751C86.14 477.022 86.1541 471.289 86.2658 465.561L103.383 465.542L103.402 34.499L86.1955 34.459C86.1029 28.8532 86.2204 22.9193 86.2483 17.2891L0.108603 17.2764C-0.0873195 11.8384 0.0442723 5.50392 0.0314549 0H86.2277L86.2229 17.248C103.071 17.253 121.059 16.9223 137.806 17.2832C137.78 11.5222 137.798 5.76073 137.861 0H137.862Z" fill="black"/>
</svg>
